<svg width="144" height="74" viewBox="0 0 144 74" fill="none" xmlns="http://www.w3.org/2000/svg">
<path d="M11.2852 7.98047V10.4766H1.00195V7.98047H11.2852ZM4.48242 3.35742H7.73438V22.2891C7.73438 22.9336 7.83398 23.4199 8.0332 23.748C8.23242 24.0762 8.49023 24.293 8.80664 24.3984C9.12305 24.5039 9.46289 24.5566 9.82617 24.5566C10.0957 24.5566 10.377 24.5332 10.6699 24.4863C10.9746 24.4277 11.2031 24.3809 11.3555 24.3457L11.373 27C11.1152 27.082 10.7754 27.1582 10.3535 27.2285C9.94336 27.3105 9.44531 27.3516 8.85938 27.3516C8.0625 27.3516 7.33008 27.1934 6.66211 26.877C5.99414 26.5605 5.46094 26.0332 5.0625 25.2949C4.67578 24.5449 4.48242 23.5371 4.48242 22.2715V3.35742ZM13.8867 17.7012V17.2969C13.8867 15.9258 14.0859 14.6543 14.4844 13.4824C14.8828 12.2988 15.457 11.2734 16.207 10.4062C16.957 9.52734 17.8652 8.84766 18.9316 8.36719C19.998 7.875 21.1934 7.62891 22.5176 7.62891C23.8535 7.62891 25.0547 7.875 26.1211 8.36719C27.1992 8.84766 28.1133 9.52734 28.8633 10.4062C29.625 11.2734 30.2051 12.2988 30.6035 13.4824C31.002 14.6543 31.2012 15.9258 31.2012 17.2969V17.7012C31.2012 19.0723 31.002 20.3438 30.6035 21.5156C30.2051 22.6875 29.625 23.7129 28.8633 24.5918C28.1133 25.459 27.2051 26.1387 26.1387 26.6309C25.084 27.1113 23.8887 27.3516 22.5527 27.3516C21.2168 27.3516 20.0156 27.1113 18.9492 26.6309C17.8828 26.1387 16.9688 25.459 16.207 24.5918C15.457 23.7129 14.8828 22.6875 14.4844 21.5156C14.0859 20.3438 13.8867 19.0723 13.8867 17.7012ZM17.1387 17.2969V17.7012C17.1387 18.6504 17.25 19.5469 17.4727 20.3906C17.6953 21.2227 18.0293 21.9609 18.4746 22.6055C18.9316 23.25 19.5 23.7598 20.1797 24.1348C20.8594 24.498 21.6504 24.6797 22.5527 24.6797C23.4434 24.6797 24.2227 24.498 24.8906 24.1348C25.5703 23.7598 26.1328 23.25 26.5781 22.6055C27.0234 21.9609 27.3574 21.2227 27.5801 20.3906C27.8145 19.5469 27.9316 18.6504 27.9316 17.7012V17.2969C27.9316 16.3594 27.8145 15.4746 27.5801 14.6426C27.3574 13.7988 27.0176 13.0547 26.5605 12.4102C26.1152 11.7539 25.5527 11.2383 24.873 10.8633C24.2051 10.4883 23.4199 10.3008 22.5176 10.3008C21.627 10.3008 20.8418 10.4883 20.1621 10.8633C19.4941 11.2383 18.9316 11.7539 18.4746 12.4102C18.0293 13.0547 17.6953 13.7988 17.4727 14.6426C17.25 15.4746 17.1387 16.3594 17.1387 17.2969ZM38.5312 11.6367V34.3125H35.2617V7.98047H38.25L38.5312 11.6367ZM51.3457 17.332V17.7012C51.3457 19.084 51.1816 20.3672 50.8535 21.5508C50.5254 22.7227 50.0449 23.7422 49.4121 24.6094C48.791 25.4766 48.0234 26.1504 47.1094 26.6309C46.1953 27.1113 45.1465 27.3516 43.9629 27.3516C42.7559 27.3516 41.6895 27.1523 40.7637 26.7539C39.8379 26.3555 39.0527 25.7754 38.4082 25.0137C37.7637 24.252 37.248 23.3379 36.8613 22.2715C36.4863 21.2051 36.2285 20.0039 36.0879 18.668V16.6992C36.2285 15.293 36.4922 14.0332 36.8789 12.9199C37.2656 11.8066 37.7754 10.8574 38.4082 10.0723C39.0527 9.27539 39.832 8.67187 40.7461 8.26172C41.6602 7.83984 42.7148 7.62891 43.9102 7.62891C45.1055 7.62891 46.166 7.86328 47.0918 8.33203C48.0176 8.78906 48.7969 9.44531 49.4297 10.3008C50.0625 11.1562 50.5371 12.1816 50.8535 13.377C51.1816 14.5605 51.3457 15.8789 51.3457 17.332ZM48.0762 17.7012V17.332C48.0762 16.3828 47.9766 15.4922 47.7773 14.6602C47.5781 13.8164 47.2676 13.0781 46.8457 12.4453C46.4355 11.8008 45.9082 11.2969 45.2637 10.9336C44.6191 10.5586 43.8516 10.3711 42.9609 10.3711C42.1406 10.3711 41.4258 10.5117 40.8164 10.793C40.2188 11.0742 39.709 11.4551 39.2871 11.9355C38.8652 12.4043 38.5195 12.9434 38.25 13.5527C37.9922 14.1504 37.7988 14.7715 37.6699 15.416V19.9688C37.9043 20.7891 38.2324 21.5625 38.6543 22.2891C39.0762 23.0039 39.6387 23.584 40.3418 24.0293C41.0449 24.4629 41.9297 24.6797 42.9961 24.6797C43.875 24.6797 44.6309 24.498 45.2637 24.1348C45.9082 23.7598 46.4355 23.25 46.8457 22.6055C47.2676 21.9609 47.5781 21.2227 47.7773 20.3906C47.9766 19.5469 48.0762 18.6504 48.0762 17.7012ZM63.1055 24.6797C63.8789 24.6797 64.5938 24.5215 65.25 24.2051C65.9062 23.8887 66.4453 23.4551 66.8672 22.9043C67.2891 22.3418 67.5293 21.7031 67.5879 20.9883H70.6816C70.623 22.1133 70.2422 23.1621 69.5391 24.1348C68.8477 25.0957 67.9395 25.875 66.8145 26.4727C65.6895 27.0586 64.4531 27.3516 63.1055 27.3516C61.6758 27.3516 60.4277 27.0996 59.3613 26.5957C58.3066 26.0918 57.4277 25.4004 56.7246 24.5215C56.0332 23.6426 55.5117 22.6348 55.1602 21.498C54.8203 20.3496 54.6504 19.1367 54.6504 17.8594V17.1211C54.6504 15.8438 54.8203 14.6367 55.1602 13.5C55.5117 12.3516 56.0332 11.3379 56.7246 10.459C57.4277 9.58008 58.3066 8.88867 59.3613 8.38477C60.4277 7.88086 61.6758 7.62891 63.1055 7.62891C64.5938 7.62891 65.8945 7.93359 67.0078 8.54297C68.1211 9.14062 68.9941 9.96094 69.627 11.0039C70.2715 12.0352 70.623 13.207 70.6816 14.5195H67.5879C67.5293 13.7344 67.3066 13.0254 66.9199 12.3926C66.5449 11.7598 66.0293 11.2559 65.373 10.8809C64.7285 10.4941 63.9727 10.3008 63.1055 10.3008C62.1094 10.3008 61.2715 10.5 60.5918 10.8984C59.9238 11.2852 59.3906 11.8125 58.9922 12.4805C58.6055 13.1367 58.3242 13.8691 58.1484 14.6777C57.9844 15.4746 57.9023 16.2891 57.9023 17.1211V17.8594C57.9023 18.6914 57.9844 19.5117 58.1484 20.3203C58.3125 21.1289 58.5879 21.8613 58.9746 22.5176C59.373 23.1738 59.9062 23.7012 60.5742 24.0996C61.2539 24.4863 62.0977 24.6797 63.1055 24.6797ZM73.4766 17.7012V17.2969C73.4766 15.9258 73.6758 14.6543 74.0742 13.4824C74.4727 12.2988 75.0469 11.2734 75.7969 10.4062C76.5469 9.52734 77.4551 8.84766 78.5215 8.36719C79.5879 7.875 80.7832 7.62891 82.1074 7.62891C83.4434 7.62891 84.6445 7.875 85.7109 8.36719C86.7891 8.84766 87.7031 9.52734 88.4531 10.4062C89.2148 11.2734 89.7949 12.2988 90.1934 13.4824C90.5918 14.6543 90.791 15.9258 90.791 17.2969V17.7012C90.791 19.0723 90.5918 20.3438 90.1934 21.5156C89.7949 22.6875 89.2148 23.7129 88.4531 24.5918C87.7031 25.459 86.7949 26.1387 85.7285 26.6309C84.6738 27.1113 83.4785 27.3516 82.1426 27.3516C80.8066 27.3516 79.6055 27.1113 78.5391 26.6309C77.4727 26.1387 76.5586 25.459 75.7969 24.5918C75.0469 23.7129 74.4727 22.6875 74.0742 21.5156C73.6758 20.3438 73.4766 19.0723 73.4766 17.7012ZM76.7285 17.2969V17.7012C76.7285 18.6504 76.8398 19.5469 77.0625 20.3906C77.2852 21.2227 77.6191 21.9609 78.0645 22.6055C78.5215 23.25 79.0898 23.7598 79.7695 24.1348C80.4492 24.498 81.2402 24.6797 82.1426 24.6797C83.0332 24.6797 83.8125 24.498 84.4805 24.1348C85.1602 23.7598 85.7227 23.25 86.168 22.6055C86.6133 21.9609 86.9473 21.2227 87.1699 20.3906C87.4043 19.5469 87.5215 18.6504 87.5215 17.7012V17.2969C87.5215 16.3594 87.4043 15.4746 87.1699 14.6426C86.9473 13.7988 86.6074 13.0547 86.1504 12.4102C85.7051 11.7539 85.1426 11.2383 84.4629 10.8633C83.7949 10.4883 83.0098 10.3008 82.1074 10.3008C81.2168 10.3008 80.4316 10.4883 79.752 10.8633C79.084 11.2383 78.5215 11.7539 78.0645 12.4102C77.6191 13.0547 77.2852 13.7988 77.0625 14.6426C76.8398 15.4746 76.7285 16.3594 76.7285 17.2969ZM106.857 23.3086V0H110.127V27H107.139L106.857 23.3086ZM94.0605 17.7012V17.332C94.0605 15.8789 94.2363 14.5605 94.5879 13.377C94.9512 12.1816 95.4609 11.1562 96.1172 10.3008C96.7852 9.44531 97.5762 8.78906 98.4902 8.33203C99.416 7.86328 100.447 7.62891 101.584 7.62891C102.779 7.62891 103.822 7.83984 104.713 8.26172C105.615 8.67187 106.377 9.27539 106.998 10.0723C107.631 10.8574 108.129 11.8066 108.492 12.9199C108.855 14.0332 109.107 15.293 109.248 16.6992V18.3164C109.119 19.7109 108.867 20.9648 108.492 22.0781C108.129 23.1914 107.631 24.1406 106.998 24.9258C106.377 25.7109 105.615 26.3145 104.713 26.7363C103.811 27.1465 102.756 27.3516 101.549 27.3516C100.436 27.3516 99.416 27.1113 98.4902 26.6309C97.5762 26.1504 96.7852 25.4766 96.1172 24.6094C95.4609 23.7422 94.9512 22.7227 94.5879 21.5508C94.2363 20.3672 94.0605 19.084 94.0605 17.7012ZM97.3301 17.332V17.7012C97.3301 18.6504 97.4238 19.541 97.6113 20.373C97.8105 21.2051 98.1152 21.9375 98.5254 22.5703C98.9355 23.2031 99.457 23.7012 100.09 24.0645C100.723 24.416 101.479 24.5918 102.357 24.5918C103.436 24.5918 104.32 24.3633 105.012 23.9062C105.715 23.4492 106.277 22.8457 106.699 22.0957C107.121 21.3457 107.449 20.5312 107.684 19.6523V15.416C107.543 14.7715 107.338 14.1504 107.068 13.5527C106.811 12.9434 106.471 12.4043 106.049 11.9355C105.639 11.4551 105.129 11.0742 104.52 10.793C103.922 10.5117 103.213 10.3711 102.393 10.3711C101.502 10.3711 100.734 10.5586 100.09 10.9336C99.457 11.2969 98.9355 11.8008 98.5254 12.4453C98.1152 13.0781 97.8105 13.8164 97.6113 14.6602C97.4238 15.4922 97.3301 16.3828 97.3301 17.332ZM123.082 27.3516C121.758 27.3516 120.557 27.1289 119.479 26.6836C118.412 26.2266 117.492 25.5879 116.719 24.7676C115.957 23.9473 115.371 22.9746 114.961 21.8496C114.551 20.7246 114.346 19.4941 114.346 18.1582V17.4199C114.346 15.873 114.574 14.4961 115.031 13.2891C115.488 12.0703 116.109 11.0391 116.895 10.1953C117.68 9.35156 118.57 8.71289 119.566 8.2793C120.562 7.8457 121.594 7.62891 122.66 7.62891C124.02 7.62891 125.191 7.86328 126.176 8.33203C127.172 8.80078 127.986 9.45703 128.619 10.3008C129.252 11.1328 129.721 12.1172 130.025 13.2539C130.33 14.3789 130.482 15.6094 130.482 16.9453V18.4043H116.279V15.75H127.23V15.5039C127.184 14.6602 127.008 13.8398 126.703 13.043C126.41 12.2461 125.941 11.5898 125.297 11.0742C124.652 10.5586 123.773 10.3008 122.66 10.3008C121.922 10.3008 121.242 10.459 120.621 10.7754C120 11.0801 119.467 11.5371 119.021 12.1465C118.576 12.7559 118.23 13.5 117.984 14.3789C117.738 15.2578 117.615 16.2715 117.615 17.4199V18.1582C117.615 19.0605 117.738 19.9102 117.984 20.707C118.242 21.4922 118.611 22.1836 119.092 22.7812C119.584 23.3789 120.176 23.8477 120.867 24.1875C121.57 24.5273 122.367 24.6973 123.258 24.6973C124.406 24.6973 125.379 24.4629 126.176 23.9941C126.973 23.5254 127.67 22.8984 128.268 22.1133L130.236 23.6777C129.826 24.2988 129.305 24.8906 128.672 25.4531C128.039 26.0156 127.26 26.4727 126.334 26.8242C125.42 27.1758 124.336 27.3516 123.082 27.3516ZM137.531 10.9688V27H134.279V7.98047H137.443L137.531 10.9688ZM143.473 7.875L143.455 10.8984C143.186 10.8398 142.928 10.8047 142.682 10.793C142.447 10.7695 142.178 10.7578 141.873 10.7578C141.123 10.7578 140.461 10.875 139.887 11.1094C139.312 11.3438 138.826 11.6719 138.428 12.0938C138.029 12.5156 137.713 13.0195 137.479 13.6055C137.256 14.1797 137.109 14.8125 137.039 15.5039L136.125 16.0312C136.125 14.8828 136.236 13.8047 136.459 12.7969C136.693 11.7891 137.051 10.8984 137.531 10.125C138.012 9.33984 138.621 8.73047 139.359 8.29688C140.109 7.85156 141 7.62891 142.031 7.62891C142.266 7.62891 142.535 7.6582 142.84 7.7168C143.145 7.76367 143.355 7.81641 143.473 7.875Z" fill="black"/>
<rect y="32.0256" width="138" height="41.9744" fill="#E64C3D"/>
<path d="M60.5312 63.2542C60.5312 62.7034 60.7012 62.2405 61.041 61.8655C61.3926 61.4788 61.8965 61.2854 62.5527 61.2854C63.209 61.2854 63.707 61.4788 64.0469 61.8655C64.3984 62.2405 64.5742 62.7034 64.5742 63.2542C64.5742 63.7932 64.3984 64.2503 64.0469 64.6253C63.707 65.0003 63.209 65.1878 62.5527 65.1878C61.8965 65.1878 61.3926 65.0003 61.041 64.6253C60.7012 64.2503 60.5312 63.7932 60.5312 63.2542ZM77.582 62.6565C78.3555 62.6565 79.0703 62.4983 79.7266 62.1819C80.3828 61.8655 80.9219 61.4319 81.3438 60.8811C81.7656 60.3186 82.0059 59.68 82.0645 58.9651H85.1582C85.0996 60.0901 84.7188 61.1389 84.0156 62.1116C83.3242 63.0725 82.416 63.8518 81.291 64.4495C80.166 65.0354 78.9297 65.3284 77.582 65.3284C76.1523 65.3284 74.9043 65.0764 73.8379 64.5725C72.7832 64.0686 71.9043 63.3772 71.2012 62.4983C70.5098 61.6194 69.9883 60.6116 69.6367 59.4749C69.2969 58.3264 69.127 57.1136 69.127 55.8362V55.0979C69.127 53.8206 69.2969 52.6136 69.6367 51.4768C69.9883 50.3284 70.5098 49.3147 71.2012 48.4358C71.9043 47.5569 72.7832 46.8655 73.8379 46.3616C74.9043 45.8577 76.1523 45.6057 77.582 45.6057C79.0703 45.6057 80.3711 45.9104 81.4844 46.5198C82.5977 47.1175 83.4707 47.9378 84.1035 48.9807C84.748 50.012 85.0996 51.1839 85.1582 52.4964H82.0645C82.0059 51.7112 81.7832 51.0022 81.3965 50.3694C81.0215 49.7366 80.5059 49.2327 79.8496 48.8577C79.2051 48.471 78.4492 48.2776 77.582 48.2776C76.5859 48.2776 75.748 48.4768 75.0684 48.8753C74.4004 49.262 73.8672 49.7893 73.4688 50.4573C73.082 51.1136 72.8008 51.846 72.625 52.6546C72.4609 53.4514 72.3789 54.2659 72.3789 55.0979V55.8362C72.3789 56.6682 72.4609 57.4886 72.625 58.2971C72.7891 59.1057 73.0645 59.8382 73.4512 60.4944C73.8496 61.1507 74.3828 61.678 75.0508 62.0764C75.7305 62.4632 76.5742 62.6565 77.582 62.6565ZM92.3477 37.9768V64.9768H89.0781V37.9768H92.3477ZM109.205 60.5823V45.9573H112.475V64.9768H109.363L109.205 60.5823ZM109.82 56.5745L111.174 56.5393C111.174 57.805 111.039 58.9768 110.77 60.055C110.512 61.1214 110.09 62.0471 109.504 62.8323C108.918 63.6175 108.15 64.2327 107.201 64.678C106.252 65.1116 105.098 65.3284 103.738 65.3284C102.812 65.3284 101.963 65.1936 101.189 64.9241C100.428 64.6546 99.7715 64.2386 99.2207 63.6761C98.6699 63.1136 98.2422 62.3811 97.9375 61.4788C97.6445 60.5764 97.498 59.4925 97.498 58.2268V45.9573H100.75V58.262C100.75 59.1175 100.844 59.8264 101.031 60.3889C101.23 60.9397 101.494 61.3792 101.822 61.7073C102.162 62.0237 102.537 62.2464 102.947 62.3753C103.369 62.5042 103.803 62.5686 104.248 62.5686C105.631 62.5686 106.727 62.305 107.535 61.7776C108.344 61.2386 108.924 60.5179 109.275 59.6155C109.639 58.7014 109.82 57.6878 109.82 56.5745ZM117.414 37.9768H120.684V61.2854L120.402 64.9768H117.414V37.9768ZM133.533 55.3089V55.678C133.533 57.0608 133.369 58.344 133.041 59.5276C132.713 60.6995 132.232 61.719 131.6 62.5862C130.967 63.4534 130.193 64.1272 129.279 64.6077C128.365 65.0882 127.316 65.3284 126.133 65.3284C124.926 65.3284 123.865 65.1233 122.951 64.7132C122.049 64.2913 121.287 63.6878 120.666 62.9026C120.045 62.1175 119.547 61.1682 119.172 60.055C118.809 58.9417 118.557 57.6878 118.416 56.2932V54.6761C118.557 53.2698 118.809 52.01 119.172 50.8968C119.547 49.7835 120.045 48.8343 120.666 48.0491C121.287 47.2522 122.049 46.6487 122.951 46.2386C123.854 45.8167 124.902 45.6057 126.098 45.6057C127.293 45.6057 128.354 45.8401 129.279 46.3089C130.205 46.7659 130.979 47.4221 131.6 48.2776C132.232 49.1331 132.713 50.1585 133.041 51.3538C133.369 52.5374 133.533 53.8557 133.533 55.3089ZM130.264 55.678V55.3089C130.264 54.3596 130.176 53.469 130 52.637C129.824 51.7932 129.543 51.055 129.156 50.4221C128.77 49.7776 128.26 49.2737 127.627 48.9104C126.994 48.5354 126.215 48.3479 125.289 48.3479C124.469 48.3479 123.754 48.4886 123.145 48.7698C122.547 49.0511 122.037 49.4319 121.615 49.9124C121.193 50.3811 120.848 50.9202 120.578 51.5296C120.32 52.1272 120.127 52.7483 119.998 53.3929V57.6292C120.186 58.4495 120.49 59.2405 120.912 60.0022C121.346 60.7522 121.92 61.3675 122.635 61.8479C123.361 62.3284 124.258 62.5686 125.324 62.5686C126.203 62.5686 126.953 62.3929 127.574 62.0413C128.207 61.678 128.717 61.18 129.104 60.5471C129.502 59.9143 129.795 59.1819 129.982 58.3499C130.17 57.5179 130.264 56.6272 130.264 55.678Z" fill="white"/>
</svg>
