<svg width="225" height="80" viewBox="0 0 225 80" fill="none" xmlns="http://www.w3.org/2000/svg">
<path d="M92.2852 13.9805V16.4766H82.002V13.9805H92.2852ZM85.4824 9.35742H88.7344V28.2891C88.7344 28.9336 88.834 29.4199 89.0332 29.748C89.2324 30.0762 89.4902 30.293 89.8066 30.3984C90.123 30.5039 90.4629 30.5566 90.8262 30.5566C91.0957 30.5566 91.377 30.5332 91.6699 30.4863C91.9746 30.4277 92.2031 30.3809 92.3555 30.3457L92.373 33C92.1152 33.082 91.7754 33.1582 91.3535 33.2285C90.9434 33.3105 90.4453 33.3516 89.8594 33.3516C89.0625 33.3516 88.3301 33.1934 87.6621 32.877C86.9941 32.5605 86.4609 32.0332 86.0625 31.2949C85.6758 30.5449 85.4824 29.5371 85.4824 28.2715V9.35742ZM94.8867 23.7012V23.2969C94.8867 21.9258 95.0859 20.6543 95.4844 19.4824C95.8828 18.2988 96.457 17.2734 97.207 16.4062C97.957 15.5273 98.8652 14.8477 99.9316 14.3672C100.998 13.875 102.193 13.6289 103.518 13.6289C104.854 13.6289 106.055 13.875 107.121 14.3672C108.199 14.8477 109.113 15.5273 109.863 16.4062C110.625 17.2734 111.205 18.2988 111.604 19.4824C112.002 20.6543 112.201 21.9258 112.201 23.2969V23.7012C112.201 25.0723 112.002 26.3438 111.604 27.5156C111.205 28.6875 110.625 29.7129 109.863 30.5918C109.113 31.459 108.205 32.1387 107.139 32.6309C106.084 33.1113 104.889 33.3516 103.553 33.3516C102.217 33.3516 101.016 33.1113 99.9492 32.6309C98.8828 32.1387 97.9688 31.459 97.207 30.5918C96.457 29.7129 95.8828 28.6875 95.4844 27.5156C95.0859 26.3438 94.8867 25.0723 94.8867 23.7012ZM98.1387 23.2969V23.7012C98.1387 24.6504 98.25 25.5469 98.4727 26.3906C98.6953 27.2227 99.0293 27.9609 99.4746 28.6055C99.9316 29.25 100.5 29.7598 101.18 30.1348C101.859 30.498 102.65 30.6797 103.553 30.6797C104.443 30.6797 105.223 30.498 105.891 30.1348C106.57 29.7598 107.133 29.25 107.578 28.6055C108.023 27.9609 108.357 27.2227 108.58 26.3906C108.814 25.5469 108.932 24.6504 108.932 23.7012V23.2969C108.932 22.3594 108.814 21.4746 108.58 20.6426C108.357 19.7988 108.018 19.0547 107.561 18.4102C107.115 17.7539 106.553 17.2383 105.873 16.8633C105.205 16.4883 104.42 16.3008 103.518 16.3008C102.627 16.3008 101.842 16.4883 101.162 16.8633C100.494 17.2383 99.9316 17.7539 99.4746 18.4102C99.0293 19.0547 98.6953 19.7988 98.4727 20.6426C98.25 21.4746 98.1387 22.3594 98.1387 23.2969ZM119.531 17.6367V40.3125H116.262V13.9805H119.25L119.531 17.6367ZM132.346 23.332V23.7012C132.346 25.084 132.182 26.3672 131.854 27.5508C131.525 28.7227 131.045 29.7422 130.412 30.6094C129.791 31.4766 129.023 32.1504 128.109 32.6309C127.195 33.1113 126.146 33.3516 124.963 33.3516C123.756 33.3516 122.689 33.1523 121.764 32.7539C120.838 32.3555 120.053 31.7754 119.408 31.0137C118.764 30.252 118.248 29.3379 117.861 28.2715C117.486 27.2051 117.229 26.0039 117.088 24.668V22.6992C117.229 21.293 117.492 20.0332 117.879 18.9199C118.266 17.8066 118.775 16.8574 119.408 16.0723C120.053 15.2754 120.832 14.6719 121.746 14.2617C122.66 13.8398 123.715 13.6289 124.91 13.6289C126.105 13.6289 127.166 13.8633 128.092 14.332C129.018 14.7891 129.797 15.4453 130.43 16.3008C131.062 17.1562 131.537 18.1816 131.854 19.377C132.182 20.5605 132.346 21.8789 132.346 23.332ZM129.076 23.7012V23.332C129.076 22.3828 128.977 21.4922 128.777 20.6602C128.578 19.8164 128.268 19.0781 127.846 18.4453C127.436 17.8008 126.908 17.2969 126.264 16.9336C125.619 16.5586 124.852 16.3711 123.961 16.3711C123.141 16.3711 122.426 16.5117 121.816 16.793C121.219 17.0742 120.709 17.4551 120.287 17.9355C119.865 18.4043 119.52 18.9434 119.25 19.5527C118.992 20.1504 118.799 20.7715 118.67 21.416V25.9688C118.904 26.7891 119.232 27.5625 119.654 28.2891C120.076 29.0039 120.639 29.584 121.342 30.0293C122.045 30.4629 122.93 30.6797 123.996 30.6797C124.875 30.6797 125.631 30.498 126.264 30.1348C126.908 29.7598 127.436 29.25 127.846 28.6055C128.268 27.9609 128.578 27.2227 128.777 26.3906C128.977 25.5469 129.076 24.6504 129.076 23.7012ZM144.105 30.6797C144.879 30.6797 145.594 30.5215 146.25 30.2051C146.906 29.8887 147.445 29.4551 147.867 28.9043C148.289 28.3418 148.529 27.7031 148.588 26.9883H151.682C151.623 28.1133 151.242 29.1621 150.539 30.1348C149.848 31.0957 148.939 31.875 147.814 32.4727C146.689 33.0586 145.453 33.3516 144.105 33.3516C142.676 33.3516 141.428 33.0996 140.361 32.5957C139.307 32.0918 138.428 31.4004 137.725 30.5215C137.033 29.6426 136.512 28.6348 136.16 27.498C135.82 26.3496 135.65 25.1367 135.65 23.8594V23.1211C135.65 21.8438 135.82 20.6367 136.16 19.5C136.512 18.3516 137.033 17.3379 137.725 16.459C138.428 15.5801 139.307 14.8887 140.361 14.3848C141.428 13.8809 142.676 13.6289 144.105 13.6289C145.594 13.6289 146.895 13.9336 148.008 14.543C149.121 15.1406 149.994 15.9609 150.627 17.0039C151.271 18.0352 151.623 19.207 151.682 20.5195H148.588C148.529 19.7344 148.307 19.0254 147.92 18.3926C147.545 17.7598 147.029 17.2559 146.373 16.8809C145.729 16.4941 144.973 16.3008 144.105 16.3008C143.109 16.3008 142.271 16.5 141.592 16.8984C140.924 17.2852 140.391 17.8125 139.992 18.4805C139.605 19.1367 139.324 19.8691 139.148 20.6777C138.984 21.4746 138.902 22.2891 138.902 23.1211V23.8594C138.902 24.6914 138.984 25.5117 139.148 26.3203C139.312 27.1289 139.588 27.8613 139.975 28.5176C140.373 29.1738 140.906 29.7012 141.574 30.0996C142.254 30.4863 143.098 30.6797 144.105 30.6797ZM154.477 23.7012V23.2969C154.477 21.9258 154.676 20.6543 155.074 19.4824C155.473 18.2988 156.047 17.2734 156.797 16.4062C157.547 15.5273 158.455 14.8477 159.521 14.3672C160.588 13.875 161.783 13.6289 163.107 13.6289C164.443 13.6289 165.645 13.875 166.711 14.3672C167.789 14.8477 168.703 15.5273 169.453 16.4062C170.215 17.2734 170.795 18.2988 171.193 19.4824C171.592 20.6543 171.791 21.9258 171.791 23.2969V23.7012C171.791 25.0723 171.592 26.3438 171.193 27.5156C170.795 28.6875 170.215 29.7129 169.453 30.5918C168.703 31.459 167.795 32.1387 166.729 32.6309C165.674 33.1113 164.479 33.3516 163.143 33.3516C161.807 33.3516 160.605 33.1113 159.539 32.6309C158.473 32.1387 157.559 31.459 156.797 30.5918C156.047 29.7129 155.473 28.6875 155.074 27.5156C154.676 26.3438 154.477 25.0723 154.477 23.7012ZM157.729 23.2969V23.7012C157.729 24.6504 157.84 25.5469 158.062 26.3906C158.285 27.2227 158.619 27.9609 159.064 28.6055C159.521 29.25 160.09 29.7598 160.77 30.1348C161.449 30.498 162.24 30.6797 163.143 30.6797C164.033 30.6797 164.812 30.498 165.48 30.1348C166.16 29.7598 166.723 29.25 167.168 28.6055C167.613 27.9609 167.947 27.2227 168.17 26.3906C168.404 25.5469 168.521 24.6504 168.521 23.7012V23.2969C168.521 22.3594 168.404 21.4746 168.17 20.6426C167.947 19.7988 167.607 19.0547 167.15 18.4102C166.705 17.7539 166.143 17.2383 165.463 16.8633C164.795 16.4883 164.01 16.3008 163.107 16.3008C162.217 16.3008 161.432 16.4883 160.752 16.8633C160.084 17.2383 159.521 17.7539 159.064 18.4102C158.619 19.0547 158.285 19.7988 158.062 20.6426C157.84 21.4746 157.729 22.3594 157.729 23.2969ZM187.857 29.3086V6H191.127V33H188.139L187.857 29.3086ZM175.061 23.7012V23.332C175.061 21.8789 175.236 20.5605 175.588 19.377C175.951 18.1816 176.461 17.1562 177.117 16.3008C177.785 15.4453 178.576 14.7891 179.49 14.332C180.416 13.8633 181.447 13.6289 182.584 13.6289C183.779 13.6289 184.822 13.8398 185.713 14.2617C186.615 14.6719 187.377 15.2754 187.998 16.0723C188.631 16.8574 189.129 17.8066 189.492 18.9199C189.855 20.0332 190.107 21.293 190.248 22.6992V24.3164C190.119 25.7109 189.867 26.9648 189.492 28.0781C189.129 29.1914 188.631 30.1406 187.998 30.9258C187.377 31.7109 186.615 32.3145 185.713 32.7363C184.811 33.1465 183.756 33.3516 182.549 33.3516C181.436 33.3516 180.416 33.1113 179.49 32.6309C178.576 32.1504 177.785 31.4766 177.117 30.6094C176.461 29.7422 175.951 28.7227 175.588 27.5508C175.236 26.3672 175.061 25.084 175.061 23.7012ZM178.33 23.332V23.7012C178.33 24.6504 178.424 25.541 178.611 26.373C178.811 27.2051 179.115 27.9375 179.525 28.5703C179.936 29.2031 180.457 29.7012 181.09 30.0645C181.723 30.416 182.479 30.5918 183.357 30.5918C184.436 30.5918 185.32 30.3633 186.012 29.9062C186.715 29.4492 187.277 28.8457 187.699 28.0957C188.121 27.3457 188.449 26.5312 188.684 25.6523V21.416C188.543 20.7715 188.338 20.1504 188.068 19.5527C187.811 18.9434 187.471 18.4043 187.049 17.9355C186.639 17.4551 186.129 17.0742 185.52 16.793C184.922 16.5117 184.213 16.3711 183.393 16.3711C182.502 16.3711 181.734 16.5586 181.09 16.9336C180.457 17.2969 179.936 17.8008 179.525 18.4453C179.115 19.0781 178.811 19.8164 178.611 20.6602C178.424 21.4922 178.33 22.3828 178.33 23.332ZM204.082 33.3516C202.758 33.3516 201.557 33.1289 200.479 32.6836C199.412 32.2266 198.492 31.5879 197.719 30.7676C196.957 29.9473 196.371 28.9746 195.961 27.8496C195.551 26.7246 195.346 25.4941 195.346 24.1582V23.4199C195.346 21.873 195.574 20.4961 196.031 19.2891C196.488 18.0703 197.109 17.0391 197.895 16.1953C198.68 15.3516 199.57 14.7129 200.566 14.2793C201.562 13.8457 202.594 13.6289 203.66 13.6289C205.02 13.6289 206.191 13.8633 207.176 14.332C208.172 14.8008 208.986 15.457 209.619 16.3008C210.252 17.1328 210.721 18.1172 211.025 19.2539C211.33 20.3789 211.482 21.6094 211.482 22.9453V24.4043H197.279V21.75H208.23V21.5039C208.184 20.6602 208.008 19.8398 207.703 19.043C207.41 18.2461 206.941 17.5898 206.297 17.0742C205.652 16.5586 204.773 16.3008 203.66 16.3008C202.922 16.3008 202.242 16.459 201.621 16.7754C201 17.0801 200.467 17.5371 200.021 18.1465C199.576 18.7559 199.23 19.5 198.984 20.3789C198.738 21.2578 198.615 22.2715 198.615 23.4199V24.1582C198.615 25.0605 198.738 25.9102 198.984 26.707C199.242 27.4922 199.611 28.1836 200.092 28.7812C200.584 29.3789 201.176 29.8477 201.867 30.1875C202.57 30.5273 203.367 30.6973 204.258 30.6973C205.406 30.6973 206.379 30.4629 207.176 29.9941C207.973 29.5254 208.67 28.8984 209.268 28.1133L211.236 29.6777C210.826 30.2988 210.305 30.8906 209.672 31.4531C209.039 32.0156 208.26 32.4727 207.334 32.8242C206.42 33.1758 205.336 33.3516 204.082 33.3516ZM218.531 16.9688V33H215.279V13.9805H218.443L218.531 16.9688ZM224.473 13.875L224.455 16.8984C224.186 16.8398 223.928 16.8047 223.682 16.793C223.447 16.7695 223.178 16.7578 222.873 16.7578C222.123 16.7578 221.461 16.875 220.887 17.1094C220.312 17.3438 219.826 17.6719 219.428 18.0938C219.029 18.5156 218.713 19.0195 218.479 19.6055C218.256 20.1797 218.109 20.8125 218.039 21.5039L217.125 22.0312C217.125 20.8828 217.236 19.8047 217.459 18.7969C217.693 17.7891 218.051 16.8984 218.531 16.125C219.012 15.3398 219.621 14.7305 220.359 14.2969C221.109 13.8516 222 13.6289 223.031 13.6289C223.266 13.6289 223.535 13.6582 223.84 13.7168C224.145 13.7637 224.355 13.8164 224.473 13.875Z" fill="black"/>
<rect x="81" y="38.0256" width="138" height="41.9744" fill="#E64C3D"/>
<path d="M141.531 69.2542C141.531 68.7034 141.701 68.2405 142.041 67.8655C142.393 67.4788 142.896 67.2854 143.553 67.2854C144.209 67.2854 144.707 67.4788 145.047 67.8655C145.398 68.2405 145.574 68.7034 145.574 69.2542C145.574 69.7933 145.398 70.2503 145.047 70.6253C144.707 71.0003 144.209 71.1878 143.553 71.1878C142.896 71.1878 142.393 71.0003 142.041 70.6253C141.701 70.2503 141.531 69.7933 141.531 69.2542ZM158.582 68.6565C159.355 68.6565 160.07 68.4983 160.727 68.1819C161.383 67.8655 161.922 67.4319 162.344 66.8811C162.766 66.3186 163.006 65.68 163.064 64.9651H166.158C166.1 66.0901 165.719 67.139 165.016 68.1116C164.324 69.0726 163.416 69.8519 162.291 70.4495C161.166 71.0354 159.93 71.3284 158.582 71.3284C157.152 71.3284 155.904 71.0765 154.838 70.5726C153.783 70.0686 152.904 69.3772 152.201 68.4983C151.51 67.6194 150.988 66.6116 150.637 65.4749C150.297 64.3265 150.127 63.1136 150.127 61.8362V61.0979C150.127 59.8206 150.297 58.6136 150.637 57.4769C150.988 56.3284 151.51 55.3147 152.201 54.4358C152.904 53.5569 153.783 52.8655 154.838 52.3616C155.904 51.8577 157.152 51.6058 158.582 51.6058C160.07 51.6058 161.371 51.9104 162.484 52.5198C163.598 53.1175 164.471 53.9378 165.104 54.9808C165.748 56.012 166.1 57.1839 166.158 58.4964H163.064C163.006 57.7112 162.783 57.0022 162.396 56.3694C162.021 55.7366 161.506 55.2327 160.85 54.8577C160.205 54.471 159.449 54.2776 158.582 54.2776C157.586 54.2776 156.748 54.4769 156.068 54.8753C155.4 55.262 154.867 55.7894 154.469 56.4573C154.082 57.1136 153.801 57.846 153.625 58.6546C153.461 59.4515 153.379 60.2659 153.379 61.0979V61.8362C153.379 62.6683 153.461 63.4886 153.625 64.2972C153.789 65.1058 154.064 65.8382 154.451 66.4944C154.85 67.1507 155.383 67.678 156.051 68.0765C156.73 68.4632 157.574 68.6565 158.582 68.6565ZM173.348 43.9769V70.9769H170.078V43.9769H173.348ZM190.205 66.5823V51.9573H193.475V70.9769H190.363L190.205 66.5823ZM190.82 62.5745L192.174 62.5394C192.174 63.805 192.039 64.9769 191.77 66.055C191.512 67.1214 191.09 68.0472 190.504 68.8323C189.918 69.6175 189.15 70.2327 188.201 70.678C187.252 71.1116 186.098 71.3284 184.738 71.3284C183.812 71.3284 182.963 71.1936 182.189 70.9241C181.428 70.6546 180.771 70.2386 180.221 69.6761C179.67 69.1136 179.242 68.3811 178.938 67.4788C178.645 66.5765 178.498 65.4925 178.498 64.2269V51.9573H181.75V64.262C181.75 65.1175 181.844 65.8265 182.031 66.389C182.23 66.9397 182.494 67.3792 182.822 67.7073C183.162 68.0237 183.537 68.2464 183.947 68.3753C184.369 68.5042 184.803 68.5686 185.248 68.5686C186.631 68.5686 187.727 68.305 188.535 67.7776C189.344 67.2386 189.924 66.5179 190.275 65.6155C190.639 64.7015 190.82 63.6878 190.82 62.5745ZM198.414 43.9769H201.684V67.2854L201.402 70.9769H198.414V43.9769ZM214.533 61.3089V61.678C214.533 63.0608 214.369 64.344 214.041 65.5276C213.713 66.6995 213.232 67.719 212.6 68.5862C211.967 69.4534 211.193 70.1272 210.279 70.6077C209.365 71.0882 208.316 71.3284 207.133 71.3284C205.926 71.3284 204.865 71.1233 203.951 70.7132C203.049 70.2913 202.287 69.6878 201.666 68.9026C201.045 68.1175 200.547 67.1683 200.172 66.055C199.809 64.9417 199.557 63.6878 199.416 62.2933V60.6761C199.557 59.2698 199.809 58.0101 200.172 56.8968C200.547 55.7835 201.045 54.8343 201.666 54.0491C202.287 53.2522 203.049 52.6487 203.951 52.2386C204.854 51.8167 205.902 51.6058 207.098 51.6058C208.293 51.6058 209.354 51.8401 210.279 52.3089C211.205 52.7659 211.979 53.4222 212.6 54.2776C213.232 55.1331 213.713 56.1585 214.041 57.3538C214.369 58.5374 214.533 59.8558 214.533 61.3089ZM211.264 61.678V61.3089C211.264 60.3597 211.176 59.469 211 58.637C210.824 57.7933 210.543 57.055 210.156 56.4222C209.77 55.7776 209.26 55.2737 208.627 54.9104C207.994 54.5354 207.215 54.3479 206.289 54.3479C205.469 54.3479 204.754 54.4886 204.145 54.7698C203.547 55.0511 203.037 55.4319 202.615 55.9124C202.193 56.3811 201.848 56.9202 201.578 57.5296C201.32 58.1272 201.127 58.7483 200.998 59.3929V63.6292C201.186 64.4495 201.49 65.2405 201.912 66.0022C202.346 66.7522 202.92 67.3675 203.635 67.8479C204.361 68.3284 205.258 68.5686 206.324 68.5686C207.203 68.5686 207.953 68.3929 208.574 68.0413C209.207 67.678 209.717 67.18 210.104 66.5472C210.502 65.9144 210.795 65.1819 210.982 64.3499C211.17 63.5179 211.264 62.6272 211.264 61.678Z" fill="white"/>
<g clip-path="url(#clip0_1_98)">
<path d="M23.3892 77.5354H11.9232C11.5803 77.5354 11.2863 77.2416 11.2863 76.8988V46.864C11.2863 46.5212 11.5803 46.2274 11.9232 46.2274H23.3892C23.7322 46.2274 24.0261 46.5212 24.0261 46.864V76.8988C24.0261 77.2416 23.7485 77.5354 23.3892 77.5354Z" fill="#E64C3D"/>
<path d="M40.3593 1.48542V14.4134C40.3593 15.2296 41.029 15.8988 41.8457 15.8988C42.6623 15.8988 43.332 15.2296 43.332 14.4134V1.48542C43.332 0.669253 42.6623 0 41.8457 0C41.0127 0 40.3593 0.669253 40.3593 1.48542Z" fill="#2C2F33"/>
<path d="M68.7138 29.0554H55.7779C54.9612 29.0554 54.2916 29.7246 54.2916 30.5408C54.2916 31.357 54.9612 32.0262 55.7779 32.0262H68.7138C69.5304 32.0262 70.2001 31.357 70.2001 30.5408C70.2001 29.7246 69.5304 29.0554 68.7138 29.0554Z" fill="#2C2F33"/>
<path d="M13.4749 30.5408C13.4749 31.357 14.1445 32.0262 14.9612 32.0262H27.8971C28.7138 32.0262 29.3834 31.357 29.3834 30.5408C29.3834 29.7246 28.7138 29.0554 27.8971 29.0554H14.9612C14.1445 29.0554 13.4749 29.7246 13.4749 30.5408Z" fill="#2C2F33"/>
<path d="M21.5108 9.94086C21.7885 9.66336 21.9518 9.28793 21.9518 8.89617C21.9518 8.50441 21.7885 8.12897 21.5108 7.85148C21.2332 7.57398 20.8575 7.41075 20.4655 7.41075C20.0735 7.41075 19.6978 7.57398 19.4202 7.85148C19.1425 8.12897 18.9792 8.50441 18.9792 8.89617C18.9792 9.28793 19.1425 9.66336 19.4202 9.94086C19.6978 10.2184 20.0735 10.3816 20.4655 10.3816C20.8575 10.3816 21.2332 10.2184 21.5108 9.94086Z" fill="#2C2F33"/>
<path d="M25.5125 13.9401C24.9408 14.5114 24.9408 15.4581 25.5125 16.0294C25.8065 16.3232 26.1821 16.4702 26.5578 16.4702C26.9334 16.4702 27.3254 16.3232 27.6031 16.0294C28.1748 15.4581 28.1748 14.5114 27.6031 13.9401C27.0314 13.3687 26.0841 13.3687 25.5125 13.9401Z" fill="#2C2F33"/>
<path d="M24.5651 12.9933C25.1368 12.422 25.1368 11.4752 24.5651 10.9039C23.9935 10.3326 23.0462 10.3326 22.4745 10.9039C21.9028 11.4752 21.9028 12.422 22.4745 12.9933C22.7685 13.2871 23.1442 13.4177 23.5198 13.4177C23.8955 13.434 24.2711 13.2871 24.5651 12.9933Z" fill="#2C2F33"/>
<path d="M28.5668 16.9925C28.2891 17.27 28.1421 17.6454 28.1421 18.0372C28.1421 18.4289 28.3054 18.8044 28.5831 19.0819C28.8608 19.3594 29.2364 19.5226 29.6284 19.5226C30.0204 19.5226 30.3961 19.3594 30.6738 19.0819C30.9514 18.8044 31.1147 18.4289 31.1147 18.0372C31.1147 17.6454 30.9514 17.27 30.6738 16.9925C30.3961 16.715 30.0204 16.5518 29.6284 16.5518C29.2201 16.5518 28.8281 16.715 28.5668 16.9925Z" fill="#2C2F33"/>
<path d="M60.7758 8.79824C60.4982 9.07573 60.3348 9.45116 60.3348 9.84292C60.3348 10.2347 60.4982 10.6101 60.7758 10.8876C61.0535 11.1651 61.4292 11.3283 61.8212 11.3283C62.2132 11.3283 62.5888 11.1651 62.8665 10.8876C63.1441 10.6101 63.2911 10.2347 63.2911 9.84292C63.2911 9.45116 63.1278 9.07573 62.8665 8.79824C62.5888 8.52074 62.2132 8.37383 61.8212 8.37383C61.4455 8.35751 61.0535 8.52074 60.7758 8.79824Z" fill="#2C2F33"/>
<path d="M55.7289 17.4006C56.1045 17.4006 56.4802 17.2537 56.7742 16.9762C57.3459 16.4049 57.3459 15.4581 56.7742 14.8868C56.2025 14.3155 55.2552 14.3155 54.6836 14.8868C54.1119 15.4581 54.1119 16.4049 54.6836 16.9762C54.9776 17.27 55.3532 17.4006 55.7289 17.4006Z" fill="#2C2F33"/>
<path d="M57.7379 11.8344C57.1662 12.4057 57.1662 13.3524 57.7379 13.9237C58.0319 14.2175 58.4075 14.3645 58.7832 14.3645C59.1589 14.3645 59.5345 14.2175 59.8285 13.9237C60.4002 13.3524 60.4002 12.4057 59.8285 11.8344C59.2568 11.263 58.3095 11.263 57.7379 11.8344Z" fill="#2C2F33"/>
<path d="M51.2046 18.9839C51.2046 19.3757 51.3679 19.7511 51.6456 20.0286C51.9233 20.3061 52.2989 20.4694 52.6909 20.4694C53.0829 20.4694 53.4586 20.3061 53.7362 20.0286C54.0139 19.7511 54.1772 19.3757 54.1772 18.9839C54.1772 18.5922 54.0139 18.2167 53.7362 17.9393C53.4586 17.6618 53.0829 17.5148 52.6909 17.5148C52.2989 17.5148 51.9233 17.6781 51.6456 17.9393C51.3679 18.2004 51.2046 18.5922 51.2046 18.9839Z" fill="#2C2F33"/>
<path d="M69.9388 49.6553C69.9388 45.0522 66.1985 41.3141 61.5925 41.3141H48.6239V31.9609C48.6239 28.027 47.4806 25.1868 45.194 23.5218C41.6007 20.8774 36.6517 22.3955 36.4557 22.4608C35.835 22.6567 35.4267 23.228 35.4267 23.8646V34.3441C35.4267 42.6037 25.8391 45.4276 25.4308 45.5419C25.2348 45.5908 25.0715 45.6888 24.9245 45.803C24.4181 45.1664 23.6341 44.7583 22.7685 44.7583H12.5602C11.0413 44.7583 9.79993 45.9989 9.79993 47.517V76.2622C9.79993 77.7803 11.0413 79.0208 12.5602 79.0208H22.7358C23.7485 79.0208 24.6468 78.4659 25.1205 77.6334C26.6231 79.0698 28.6484 79.9513 30.8861 79.9513H56.5292C62.1968 79.9513 65.8065 76.9804 66.4435 71.806L69.8898 49.8838C69.9224 49.8186 69.9388 49.7369 69.9388 49.6553ZM22.5562 76.05H12.7726V47.7129H22.5562V76.05ZM63.5362 71.3816C63.5362 71.3979 63.5362 71.4142 63.5362 71.4305C63.0788 75.1196 60.7269 76.9968 56.5456 76.9968H30.9024C27.9298 76.9968 25.5125 74.5809 25.5125 71.6101V48.3984C25.7411 48.4474 25.9861 48.4474 26.2148 48.3821C26.7048 48.2515 38.3667 44.8563 38.3667 34.3441V25.0562C39.6407 24.8603 41.8457 24.746 43.43 25.905C44.9 26.9823 45.6513 29.0227 45.6513 31.9609V42.7996C45.6513 43.6157 46.321 44.285 47.1376 44.285H61.5925C64.5325 44.285 66.9171 46.6355 66.9825 49.5574L63.5362 71.3816Z" fill="#2C2F33"/>
</g>
<defs>
<clipPath id="clip0_1_98">
<rect width="80" height="79.9513" fill="white"/>
</clipPath>
</defs>
</svg>
